<svg width="365" height="146" viewBox="0 0 365 146" fill="none" xmlns="http://www.w3.org/2000/svg">
<path fill-rule="evenodd" clip-rule="evenodd" d="M244.156 60.4521C234.26 61.2462 225.366 66.3354 221.005 73.6978C218.963 77.1443 218.304 79.6196 218.299 83.8539C218.294 88.0874 219.209 91.2385 221.445 94.6926C223.433 97.764 227.763 101.644 231.134 103.374C233.842 104.764 233.953 104.874 233.954 106.169C233.956 108.302 232.935 111.188 231.337 113.565C230.151 115.33 229.939 115.898 230.249 116.478C230.588 117.11 230.919 117.17 232.957 116.963C237.688 116.482 242.582 113.113 244.632 108.927L245.396 107.366L249.782 107.174C258.213 106.806 264.686 104.091 270.259 98.5876C281.686 87.3019 277.864 70.7744 262.123 63.4079C258.877 61.8896 255.068 60.8424 251.9 60.5983C250.446 60.4865 248.831 60.3497 248.312 60.2946C247.792 60.2394 245.922 60.3105 244.156 60.4521ZM254.278 63.6739C260.078 64.8662 266.024 68.1307 269.419 71.9879C270.291 72.9788 271.636 75.0673 272.408 76.6298C273.785 79.4141 273.812 79.5569 273.812 83.8539C273.812 88.1512 273.785 88.2929 272.413 91.0515C270.612 94.673 268.253 97.3258 264.752 99.6677C259.952 102.879 255.463 104.236 248.505 104.579L243.598 104.821L242.705 106.704C241.394 109.469 239.777 111.329 237.592 112.581C236.527 113.192 235.473 113.693 235.249 113.696C235.005 113.698 235.19 112.68 235.711 111.149C236.295 109.437 236.584 107.705 236.59 105.878L236.6 103.157L233.106 101.354C224.531 96.9314 219.787 89.0171 221.085 81.3038C222.562 72.5266 231.203 65.1968 242.267 63.3373C244.699 62.9282 251.59 63.1216 254.278 63.6739ZM279.029 76.5384C278.604 77.6476 279.447 78.2618 282.681 79.1954C290.806 81.541 296.763 86.5399 299.333 93.1701C300.535 96.2729 300.535 101.28 299.333 104.383C297.359 109.474 293.74 113.265 287.858 116.401L284.768 118.049L284.785 121.446C284.799 124.119 284.981 125.239 285.64 126.697C286.101 127.716 286.407 128.62 286.322 128.706C286.236 128.791 285.341 128.44 284.333 127.924C281.593 126.522 279.252 123.822 278.19 120.839C277.846 119.87 277.775 119.853 273.182 119.638C265.007 119.255 258.414 116.835 253.81 112.529C251.142 110.032 249.751 109.664 249.506 111.387C249.409 112.075 249.873 112.746 251.474 114.236C256.741 119.139 265.403 122.388 273.201 122.388H275.702L276.603 124.085C277.853 126.443 280.904 129.381 283.256 130.494C285.328 131.474 289.099 132.243 290.298 131.929C291.396 131.641 291.15 130.145 289.689 128.231C288.247 126.341 287.224 123.42 287.224 121.191C287.224 119.797 287.3 119.714 289.774 118.45C296.695 114.913 301.53 108.754 302.752 101.918C303.996 94.9529 300.68 87.0212 294.484 82.1466C289.195 77.9842 279.785 74.5697 279.029 76.5384Z" fill="#FF31EA"/>
<path d="M255.513 80.026C254.919 78.7093 253.763 77.7828 252.321 77.5193C251.83 77.4273 251.323 77.4136 250.791 77.4575L250.75 77.4739L250.449 77.4979L250.478 77.5103C250.185 77.5549 249.88 77.6283 249.562 77.7305L249.583 77.7223L249.314 77.8288L249.273 77.8452C247.635 78.4716 246.292 79.7213 245.657 81.1913L245.636 81.1995L245.632 81.249L245.52 81.5084L245.541 81.5002C245.516 81.5578 245.491 81.6155 245.474 81.6938C245.317 82.1386 244.88 83.5061 245.859 84.1683L245.909 84.1725C246.102 84.3586 246.386 84.4129 246.663 84.4466C246.91 84.4679 247.178 84.481 247.45 84.4446C248.114 84.3721 248.58 84.1631 248.878 83.83C249.333 83.2912 249.326 82.6728 249.299 82.1821C249.308 81.8441 249.292 81.5637 249.421 81.3456C249.71 80.8722 250.927 80.6281 251.516 80.8482C251.883 80.9893 252.158 81.2621 252.297 81.6129C252.584 82.3351 252.129 82.9935 251.595 83.7547C251.082 84.5078 250.469 85.3719 250.599 86.4194C250.627 86.6709 250.737 87.0093 250.819 87.3352C250.872 87.529 250.917 87.7023 250.945 87.8343C251.031 88.2303 251.281 88.5608 251.652 88.772C252.138 89.033 252.822 89.0719 253.428 88.855L253.47 88.8386C253.985 88.6339 254.564 88.1654 254.743 87.5929C254.876 87.0862 254.634 86.6568 254.461 86.343C254.384 86.2068 254.289 86.0293 254.277 85.9385C254.257 85.5881 254.634 85.0325 254.932 84.5798C255.056 84.4111 255.18 84.2424 255.296 84.0531L255.321 83.9955L255.449 83.7773C255.532 83.625 255.595 83.4809 255.644 83.3656C255.715 83.1225 255.786 82.8795 255.828 82.624L255.836 82.6447L255.865 82.418L255.861 82.3479C255.95 81.5484 255.849 80.7525 255.513 80.026ZM256.084 90.3091C255.693 89.7474 254.919 89.3619 254.157 89.3063L253.947 89.3181C253.918 89.3057 253.918 89.3057 253.897 89.3139L253.848 89.3096C253.658 89.3132 253.464 89.3663 253.278 89.44C252.577 89.7185 252.233 90.3566 252.33 91.2019C252.443 92.0886 253.063 92.7498 253.97 92.9872C254.291 93.0746 254.662 93.0468 255.013 92.9075C255.302 92.7929 255.587 92.6081 255.806 92.3778C255.827 92.3696 255.839 92.3408 255.872 92.3038C256.037 92.1187 256.451 91.5963 256.333 90.9982L256.346 90.9694C256.333 90.8786 256.301 90.7961 256.276 90.7342L256.268 90.7136C256.231 90.5609 256.161 90.4453 256.084 90.3091Z" fill="#FF31EA"/>
<path d="M279.75 106.268C279.785 106.295 279.82 106.322 279.855 106.349C280.429 106.732 281.297 106.949 281.904 106.63C282.243 106.443 283.246 105.169 284.041 104.129L284.082 104.076L284.23 103.882C284.567 103.441 284.927 102.934 285.305 102.44L285.436 102.232L285.476 102.18C286.614 100.619 287.794 98.8935 287.89 98.5481C287.991 98.2338 287.887 97.9309 287.783 97.7389C287.704 97.6227 287.625 97.5065 287.515 97.3945C287.515 97.3945 287.476 97.3364 287.423 97.2959C287.37 97.2555 287.317 97.215 287.295 97.1704L287.225 97.1165C287.172 97.076 287.136 97.049 287.101 97.022C286.872 96.8467 286.077 96.3508 285.501 96.776C285.474 96.8113 285.416 96.8507 285.33 96.9254L285.317 96.943L285.308 96.9918C285.308 96.9918 285.263 97.0136 285.25 97.0312C285.236 97.0488 285.223 97.0665 285.205 97.053C285.151 97.1235 285.111 97.1764 285.039 97.2334L284.985 97.304C284.832 97.4668 284.68 97.6297 284.532 97.8236C284.298 98.0923 284.051 98.3786 283.818 98.6472L283.656 98.8588C283.53 98.9864 283.423 99.1275 283.297 99.2551C282.929 99.7 282.56 100.145 282.223 100.586C279.2 104.283 279.151 104.748 279.118 104.975C279.056 105.458 279.291 105.918 279.75 106.268ZM280.122 109.18C280.425 108.601 280.378 107.895 280.001 107.327C279.629 106.791 279.006 106.51 278.348 106.566C277.832 106.619 277.297 106.88 276.925 107.294C276.552 107.708 276.383 108.221 276.467 108.733C276.556 109.164 276.762 109.517 277.097 109.773C277.344 109.962 277.627 110.067 277.968 110.132L277.999 110.128L278.017 110.142L278.274 110.171L278.256 110.157C278.638 110.17 279.039 110.085 279.378 109.897L279.382 109.928L279.628 109.753L279.655 109.717L279.668 109.7C279.87 109.546 280.022 109.383 280.122 109.18Z" fill="#FF31EA"/>
<path d="M107.349 45.624L107.477 36.92C107.477 36.3227 108.095 35.9387 109.333 35.768C110.57 35.5547 111.594 35.448 112.405 35.448L114.901 35.64C116.522 35.896 117.333 36.344 117.333 36.984L117.077 57.016C116.223 57.6133 114.495 58.2107 111.893 58.808C109.333 59.3627 106.389 59.64 103.061 59.64C96.8741 59.64 91.8821 57.6347 88.0848 53.624C84.2874 49.6133 82.3888 43.7253 82.3888 35.96C82.3888 29.3467 84.2448 23.9707 87.9568 19.832C91.6688 15.6933 96.8101 13.624 103.381 13.624C106.367 13.624 109.055 13.9227 111.445 14.52C113.877 15.0747 115.541 15.8427 116.437 16.824C116.479 17.1653 116.501 17.8053 116.501 18.744C116.501 19.6827 116.181 21.0267 115.541 22.776C114.901 24.4827 114.175 25.7627 113.365 26.616C112.554 27.4693 111.957 27.896 111.573 27.896C111.231 27.896 110.847 27.7467 110.421 27.448C110.037 27.1067 109.247 26.7653 108.053 26.424C106.858 26.04 105.706 25.848 104.597 25.848C101.951 25.848 99.7968 26.7013 98.1328 28.408C96.5114 30.1147 95.7008 32.76 95.7008 36.344C95.7008 39.928 96.5328 42.6587 98.1968 44.536C99.9034 46.3707 101.845 47.288 104.021 47.288C106.239 47.288 107.349 46.7333 107.349 45.624ZM147.291 57.272C144.603 58.8507 141.147 59.64 136.923 59.64C132.699 59.64 129.136 58.2107 126.235 55.352C123.333 52.4507 121.883 48.4613 121.883 43.384C121.883 38.264 123.269 34.1467 126.043 31.032C128.859 27.9173 132.4 26.36 136.667 26.36C140.933 26.36 144.219 27.448 146.523 29.624C148.869 31.8 150.043 34.4453 150.043 37.56C150.043 44.472 146.075 47.928 138.139 47.928H133.723C133.723 49.208 134.064 50.104 134.747 50.616C135.472 51.0853 136.517 51.32 137.883 51.32C140.869 51.32 143.707 50.6373 146.395 49.272C146.437 49.2293 146.629 49.528 146.971 50.168C147.995 52.0027 148.507 53.56 148.507 54.84C148.507 56.0773 148.101 56.888 147.291 57.272ZM139.291 38.776C139.291 36.984 138.416 36.088 136.667 36.088C135.856 36.088 135.152 36.344 134.555 36.856C134 37.3253 133.723 38.0293 133.723 38.968V40.952H137.179C138.587 40.952 139.291 40.2267 139.291 38.776ZM178.416 57.272C175.728 58.8507 172.272 59.64 168.048 59.64C163.824 59.64 160.261 58.2107 157.36 55.352C154.458 52.4507 153.008 48.4613 153.008 43.384C153.008 38.264 154.394 34.1467 157.168 31.032C159.984 27.9173 163.525 26.36 167.792 26.36C172.058 26.36 175.344 27.448 177.648 29.624C179.994 31.8 181.168 34.4453 181.168 37.56C181.168 44.472 177.2 47.928 169.264 47.928H164.848C164.848 49.208 165.189 50.104 165.872 50.616C166.597 51.0853 167.642 51.32 169.008 51.32C171.994 51.32 174.832 50.6373 177.52 49.272C177.562 49.2293 177.754 49.528 178.096 50.168C179.12 52.0027 179.632 53.56 179.632 54.84C179.632 56.0773 179.226 56.888 178.416 57.272ZM170.416 38.776C170.416 36.984 169.541 36.088 167.792 36.088C166.981 36.088 166.277 36.344 165.68 36.856C165.125 37.3253 164.848 38.0293 164.848 38.968V40.952H168.304C169.712 40.952 170.416 40.2267 170.416 38.776ZM185.349 14.712C185.349 14.0293 187.29 13.688 191.173 13.688C194.799 13.816 196.613 14.0933 196.613 14.52V39.096L202.949 27.384C203.247 26.744 205.061 26.424 208.389 26.424C211.717 26.424 213.85 26.6373 214.789 27.064L206.469 40.632L216.069 58.616C216.154 58.7867 215.343 58.9147 213.637 59C211.973 59.128 210.586 59.192 209.477 59.192C205.381 59.192 203.183 59 202.885 58.616L196.549 44.408V58.552C196.549 59.1067 194.671 59.384 190.917 59.384C187.205 59.384 185.349 59.128 185.349 58.616V14.712ZM93.1388 109.664C93.1388 102.069 95.0374 96.3307 98.8348 92.448C102.675 88.5653 107.603 86.624 113.619 86.624C119.677 86.624 124.563 88.544 128.275 92.384C131.987 96.1813 133.843 101.941 133.843 109.664C133.843 115.595 132.691 120.373 130.387 124C128.083 127.627 124.925 130.123 120.915 131.488L127.699 136.16C127.955 136.331 128.083 136.629 128.083 137.056C128.083 137.525 127.592 138.379 126.611 139.616C125.672 140.853 124.52 141.792 123.155 142.432C121.832 143.115 120.829 143.456 120.147 143.456C119.464 143.456 118.909 143.221 118.483 142.752L109.139 132.384C104.36 131.488 100.499 129.099 97.5548 125.216C94.6108 121.291 93.1388 116.107 93.1388 109.664ZM113.491 98.912C111.443 98.912 109.715 99.8507 108.307 101.728C106.941 103.605 106.259 106.251 106.259 109.664C106.259 113.035 106.92 115.637 108.243 117.472C109.565 119.264 111.293 120.16 113.427 120.16C115.603 120.16 117.352 119.243 118.675 117.408C120.04 115.573 120.723 112.949 120.723 109.536C120.723 106.123 120.019 103.499 118.611 101.664C117.245 99.8293 115.539 98.912 113.491 98.912ZM138.966 100.384C138.966 99.9147 140.801 99.68 144.47 99.68C148.14 99.68 149.974 99.9147 149.974 100.384V119.072C149.974 121.205 150.657 122.272 152.022 122.272C153.046 122.272 154.198 121.824 155.478 120.928V100.384C155.478 99.9573 157.292 99.744 160.918 99.744C164.545 99.744 166.358 99.9573 166.358 100.384V121.376H168.022C169.473 121.376 170.198 122.763 170.198 125.536C170.198 126.944 169.9 128.373 169.302 129.824C168.449 131.701 167.297 132.64 165.846 132.64C162.988 132.64 160.876 131.467 159.51 129.12L159.446 129.184C156.844 131.488 154.049 132.64 151.062 132.64C146.924 132.64 143.873 131.616 141.91 129.568C139.948 127.477 138.966 124.043 138.966 119.264V100.384ZM185.811 131.616C185.811 131.957 183.848 132.128 179.923 132.128C176.04 132.128 174.099 131.979 174.099 131.68V100.256C174.099 99.9573 176.04 99.808 179.923 99.808C183.848 99.808 185.811 99.936 185.811 100.192V131.616ZM185.811 96.416C185.811 96.7147 183.848 96.864 179.923 96.864C176.04 96.864 174.099 96.736 174.099 96.48V87.264C174.099 86.8373 176.04 86.624 179.923 86.624C183.848 86.624 185.811 86.752 185.811 87.008V96.416ZM191.471 110.24C191.172 110.24 191.023 109.323 191.023 107.488C191.023 102.496 191.428 100 192.239 100H212.655C212.953 100 213.615 100.939 214.639 102.816C215.663 104.693 216.175 105.76 216.175 106.016C216.175 106.229 216.153 106.357 216.111 106.4L203.695 122.016L214.831 121.248C215.513 121.248 215.855 122.763 215.855 125.792C215.855 126.944 215.748 128.267 215.535 129.76C215.321 131.253 214.959 132 214.447 132H193.967C193.327 132 192.559 130.933 191.663 128.8C190.767 126.667 190.319 125.387 190.319 124.96C190.319 124.491 190.361 124.213 190.447 124.128L202.671 109.856L191.471 110.24Z" fill="#F5F5F5"/>
</svg>
